<svg xmlns="http://www.w3.org/2000/svg" width="218" height="36" fill="none"><path fill="#000" d="M43.021 9.3h3.91v2.19a6.086 6.086 0 0 1 2.268-1.879 7.105 7.105 0 0 1 3.154-.675 7.396 7.396 0 0 1 3.74.875 5.915 5.915 0 0 1 2.342 2.409 6.824 6.824 0 0 1 2.563-2.409 7.501 7.501 0 0 1 3.668-.875 7.423 7.423 0 0 1 5.714 2.063 7.916 7.916 0 0 1 1.917 5.607v10.957h-4.016V16.861a4.789 4.789 0 0 0-1.09-3.306 4.05 4.05 0 0 0-3.189-1.226 4.267 4.267 0 0 0-3.134 1.243 4.964 4.964 0 0 0-1.254 3.687v10.3h-3.982v-10.88a4.484 4.484 0 0 0-1.09-3.174 4.01 4.01 0 0 0-3.076-1.176 4.358 4.358 0 0 0-3.227 1.281 5.17 5.17 0 0 0-1.272 3.799v10.153H43.02V9.3ZM84.095 27.928a9.524 9.524 0 0 1-6.768-2.757 9.624 9.624 0 0 1-2.605-4.93 9.65 9.65 0 0 1 .56-5.55 9.24 9.24 0 0 1 2.046-3.019 9.746 9.746 0 0 1 3.041-2.004 9.525 9.525 0 0 1 3.726-.733 9.528 9.528 0 0 1 3.725.733 9.754 9.754 0 0 1 3.041 2.004 9.254 9.254 0 0 1 2.047 3.014 9.51 9.51 0 0 1 .738 3.741 9.433 9.433 0 0 1-2.785 6.74 9.507 9.507 0 0 1-6.767 2.76Zm0-15.339a5.447 5.447 0 0 0-4.04 1.716 5.932 5.932 0 0 0-1.178 1.86 6.265 6.265 0 0 0 0 4.53c.273.689.672 1.32 1.178 1.86a5.478 5.478 0 0 0 4.04 1.717c.76.005 1.514-.15 2.211-.457a5.68 5.68 0 0 0 1.808-1.26c.517-.538.93-1.17 1.216-1.86a6.028 6.028 0 0 0 0-4.53 6.022 6.022 0 0 0-1.216-1.86 5.753 5.753 0 0 0-1.808-1.26 5.443 5.443 0 0 0-2.211-.456ZM95.994 9.3h3.909v2.373a6.807 6.807 0 0 1 2.397-2.006 7.13 7.13 0 0 1 3.286-.731 7.2 7.2 0 0 1 5.495 2.1 8.177 8.177 0 0 1 1.991 5.86v10.666h-3.987V17.227a5.33 5.33 0 0 0-1.125-3.584 4.157 4.157 0 0 0-3.336-1.314 4.45 4.45 0 0 0-3.338 1.392 5.218 5.218 0 0 0-1.346 3.798v10.044h-3.946V9.3ZM124.812 27.928a10.07 10.07 0 0 1-3.946-.75 9.05 9.05 0 0 1-3.006-2.025 8.922 8.922 0 0 1-1.898-2.995 10.064 10.064 0 0 1-.664-3.653 9.61 9.61 0 0 1 .739-3.762 9.447 9.447 0 0 1 2.008-3.032 9.544 9.544 0 0 1 6.804-2.776c1.292-.01 2.574.226 3.78.694a8.953 8.953 0 0 1 3.019 1.954 9.123 9.123 0 0 1 1.995 2.979 9.689 9.689 0 0 1 .718 3.76v1.35H119.06a5.785 5.785 0 0 0 1.843 3.494 5.675 5.675 0 0 0 3.946 1.37 5.68 5.68 0 0 0 3.188-.841 4.478 4.478 0 0 0 1.79-2.264h4.24a9.938 9.938 0 0 1-3.379 4.765 9.547 9.547 0 0 1-5.876 1.732Zm.078-15.523a5.678 5.678 0 0 0-3.508 1.113 5.904 5.904 0 0 0-2.071 2.867h11.029a5.146 5.146 0 0 0-1.937-2.955 5.892 5.892 0 0 0-3.513-1.025ZM141.755 26.612 134.125 9.3h4.24l5.383 12.675L148.84 9.3h4.163L141.869 36h-4.057l3.943-9.387ZM155.057 12.807V.902h3.982V9.3h3.907v3.503h-3.907v7.27c-.011.665.032 1.33.13 1.99.054.433.248.837.552 1.15.338.293.756.478 1.199.53.672.096 1.35.139 2.029.128v3.689h-.589a14.105 14.105 0 0 1-3.503-.367 4.753 4.753 0 0 1-2.251-1.223 4.788 4.788 0 0 1-1.199-2.299 15.256 15.256 0 0 1-.35-3.558v-7.306ZM173.397 27.928a9.53 9.53 0 0 1-6.767-2.757 9.644 9.644 0 0 1-2.045-10.48 9.237 9.237 0 0 1 2.046-3.019 9.73 9.73 0 0 1 3.043-2.004 9.52 9.52 0 0 1 3.723-.733 9.528 9.528 0 0 1 3.726.733 9.755 9.755 0 0 1 3.041 2.004 9.243 9.243 0 0 1 2.047 3.014 9.512 9.512 0 0 1 .738 3.741 9.416 9.416 0 0 1-2.785 6.74 9.537 9.537 0 0 1-3.11 2.057 9.503 9.503 0 0 1-3.657.704Zm0-15.339a5.445 5.445 0 0 0-4.039 1.716 5.927 5.927 0 0 0-1.178 1.86 6.262 6.262 0 0 0 0 4.53c.272.689.672 1.32 1.178 1.86a5.475 5.475 0 0 0 4.039 1.717 5.417 5.417 0 0 0 2.212-.457 5.684 5.684 0 0 0 1.807-1.26c.518-.538.93-1.17 1.217-1.86a6.034 6.034 0 0 0 0-4.53 6.031 6.031 0 0 0-1.217-1.86 5.745 5.745 0 0 0-1.807-1.26 5.445 5.445 0 0 0-2.212-.456ZM185.295 27.563h3.946V.902h-3.946v26.661ZM196.429 27.562h-3.983V9.3h3.983v18.262Zm-1.992-21.406a2.603 2.603 0 0 1-1.916-.725 2.564 2.564 0 0 1-.739-1.902 2.586 2.586 0 0 1 .739-1.898 2.62 2.62 0 0 1 1.916-.73 2.614 2.614 0 0 1 1.917.73 2.559 2.559 0 0 1 .739 1.898 2.572 2.572 0 0 1-.739 1.9 2.619 2.619 0 0 1-1.917.727ZM207.897 27.93c-1.17 0-2.328-.23-3.41-.677a9.44 9.44 0 0 1-2.932-1.896 9.12 9.12 0 0 1-2.071-2.975 9.739 9.739 0 0 1-.768-3.95 9.897 9.897 0 0 1 .755-3.941 9.259 9.259 0 0 1 2.03-2.999 8.743 8.743 0 0 1 2.947-1.899 9.505 9.505 0 0 1 3.488-.657 8.363 8.363 0 0 1 3.467.731 7.113 7.113 0 0 1 2.652 2.006V9.302H218v18.261h-3.945v-2.517a7.478 7.478 0 0 1-2.695 2.116 8.063 8.063 0 0 1-3.463.767Zm.552-15.45a5.725 5.725 0 0 0-3.242.965 5.763 5.763 0 0 0-2.14 2.63 6.058 6.058 0 0 0-.443 2.32c-.005.8.145 1.595.443 2.338.281.71.701 1.356 1.235 1.9a5.814 5.814 0 0 0 4.147 1.716c.8.007 1.591-.154 2.324-.475a5.789 5.789 0 0 0 1.844-1.278 5.918 5.918 0 0 0 1.217-1.881 6.065 6.065 0 0 0 .436-2.32 5.997 5.997 0 0 0-1.658-4.16 5.705 5.705 0 0 0-4.163-1.755Z"/><path fill="#FF4307" d="M26.61 29.32H7.17a7.112 7.112 0 0 1-5.046-2.06A7.174 7.174 0 0 1 0 22.221V7.102a7.174 7.174 0 0 1 2.123-5.04A7.113 7.113 0 0 1 7.17 0h19.44a7.113 7.113 0 0 1 5.047 2.062 7.174 7.174 0 0 1 2.123 5.04v15.12a7.174 7.174 0 0 1-2.124 5.037 7.112 7.112 0 0 1-5.046 2.06ZM8.867 6.07a2.65 2.65 0 0 0-1.916.764 2.673 2.673 0 0 0-.798 1.91V20.58c.006.712.292 1.393.797 1.893a2.67 2.67 0 0 0 1.894.774h16.09c.71.004 1.392-.274 1.897-.774.505-.5.791-1.18.797-1.893V8.742a2.716 2.716 0 0 0-.487-1.515 2.686 2.686 0 0 0-4.2-.274l-4.11 4.506a2.635 2.635 0 0 1-1.936.852 2.624 2.624 0 0 1-1.937-.852l-4.116-4.504a2.654 2.654 0 0 0-1.975-.885Z"/><path stroke="#FF4308" stroke-linejoin="round" stroke-miterlimit="10" stroke-width="2.745" d="M21.54 14.395a4.657 4.657 0 0 1-1.375 3.27 4.617 4.617 0 0 1-3.275 1.337 4.6 4.6 0 0 1-3.273-1.337 4.637 4.637 0 0 1-1.374-3.27"/></svg>
